# xmcd
#
# Track frame offsets:
# 150
# 12082
# 28245
# 41621
# 54989
# 69207
# 82794
# 97055
# 108703
# 118626
#
# Disc length: 1772 seconds
#
#
# Revision: 0
# Processed by: cddbd v1.5PL3 Copyright (c) Steve Scherf et al.
# Submitted via: FreeRIP 2.53 
#
DISCID=7806ea0a
DTITLE=Paycheck, Johnny - Pure Country
DYEAR=1900
DGENRE=Country
TTITLE0=Take This Job And Shove It
TTITLE1=For Minute There
TTITLE2=Slide Off Your Satin Sheets
TTITLE3=She's All I Got
TTITLE4=Friend, Lover, Wife
TTITLE5=Someone To Give My Love To
TTITLE6=I'm The Only Hell My Mama Raised
TTITLE7=Song and Dance Man
TTITLE8=Mr. Lovemaker
TTITLE9=You Can Have Her
EXTD=
EXTT0=
EXTT1=
EXTT2=
EXTT3=
EXTT4=
EXTT5=
EXTT6=
EXTT7=
EXTT8=
EXTT9=
PLAYORDER=
